<svg xmlns="http://www.w3.org/2000/svg" width="9.565" height="10" viewBox="0 0 9.565 10"><g transform="translate(0 3.478)"><path d="M8.435,23.522a.205.205,0,0,1-.217-.217v-5.87H3.435V23.3A.217.217,0,1,1,3,23.3V17.217A.205.205,0,0,1,3.217,17H8.435a.205.205,0,0,1,.217.217V23.3A.205.205,0,0,1,8.435,23.522Z" transform="translate(-3 -17)" fill="#646464"/></g><g transform="translate(5.217)"><path d="M31.13,11a.205.205,0,0,1-.217-.217V1.435H27.435V3.391a.217.217,0,1,1-.435,0V1.217A.205.205,0,0,1,27.217,1H31.13a.205.205,0,0,1,.217.217v9.565A.205.205,0,0,1,31.13,11Z" transform="translate(-27 -1)" fill="#646464"/></g><g transform="translate(1.739 5.217)"><path d="M12.957,25.435H11.217a.217.217,0,0,1,0-.435h1.739a.217.217,0,0,1,0,.435Z" transform="translate(-11 -25)" fill="#646464"/></g><g transform="translate(1.739 6.957)"><path d="M12.957,33.435H11.217a.217.217,0,1,1,0-.435h1.739a.217.217,0,1,1,0,.435Z" transform="translate(-11 -33)" fill="#646464"/></g><g transform="translate(1.739 8.696)"><path d="M12.957,41.435H11.217a.217.217,0,1,1,0-.435h1.739a.217.217,0,0,1,0,.435Z" transform="translate(-11 -41)" fill="#646464"/></g><g transform="translate(6.739 5.217)"><path d="M35.087,25.435h-.87a.217.217,0,1,1,0-.435h.87a.217.217,0,0,1,0,.435Z" transform="translate(-34 -25)" fill="#646464"/></g><g transform="translate(6.739 3.478)"><path d="M35.087,17.435h-.87a.217.217,0,1,1,0-.435h.87a.217.217,0,1,1,0,.435Z" transform="translate(-34 -17)" fill="#646464"/></g><g transform="translate(6.739 1.739)"><path d="M35.087,9.435h-.87a.217.217,0,1,1,0-.435h.87a.217.217,0,1,1,0,.435Z" transform="translate(-34 -9)" fill="#646464"/></g><g transform="translate(6.739 6.957)"><path d="M35.087,33.435h-.87a.217.217,0,1,1,0-.435h.87a.217.217,0,1,1,0,.435Z" transform="translate(-34 -33)" fill="#646464"/></g><g transform="translate(6.739 8.696)"><path d="M35.087,41.435h-.87a.217.217,0,1,1,0-.435h.87a.217.217,0,0,1,0,.435Z" transform="translate(-34 -41)" fill="#646464"/></g></svg>