<?xml version="1.0" encoding="UTF-8"?><svg id="_イヤー_2" xmlns="http://www.w3.org/2000/svg" viewBox="0 0 29.99452 29.9945"><defs><style>.cls-1,.cls-2{fill:#fff;}.cls-3{fill:#64ce20;}.cls-2{fill-rule:evenodd;}</style></defs><g id="_イヤー_1-2"><g><path class="cls-3" d="M14.99726,0c8.27719,0,14.99726,6.72007,14.99726,14.99726s-6.72008,14.99725-14.99726,14.99725S0,23.27443,0,14.99726,6.72007,0,14.99726,0h0Z"/><g><path class="cls-2" d="M20.11947,10.948c.99327,0,1.79967,.80641,1.79967,1.79967s-.80641,1.79967-1.79967,1.79967-1.79967-.80642-1.79967-1.79967,.80642-1.79967,1.79967-1.79967h0Z"/><path class="cls-2" d="M9.87505,10.948c.99327,0,1.79967,.80641,1.79967,1.79967s-.80641,1.79967-1.79967,1.79967-1.79967-.80642-1.79967-1.79967,.80642-1.79967,1.79967-1.79967h0Z"/></g><path class="cls-1" d="M22.34911,21.13408c-.53125-.16962-.97461-.53009-1.2486-1.01508-.27405-.48517-.35394-1.05103-.22504-1.59351,.07666-.32233-.12256-.64569-.44482-.72235-.323-.07672-.64581,.12262-.72235,.44489-.1637,.68854-.0979,1.39764,.16168,2.04584-1.27563,1.16779-2.92657,1.81195-4.65594,1.81195s-3.38031-.64417-4.65594-1.81201c.25952-.64813,.32538-1.35724,.16168-2.04578-.07666-.32227-.39984-.52161-.72241-.44489-.32227,.07666-.52148,.40002-.44489,.72235,.12903,.54254,.04913,1.10846-.22485,1.59351-.27399,.48499-.71747,.84552-1.24872,1.01508-.31561,.10077-.48981,.43823-.38904,.75391,.08136,.25494,.31726,.4176,.57129,.4176,.06049,0,.12195-.00916,.18262-.02856,.57434-.18329,1.07574-.51807,1.474-.95538,1.47333,1.27704,3.34027,1.98395,5.29626,1.98395s3.82288-.70691,5.29626-1.98395c.39825,.43732,.89972,.77203,1.47406,.95538,.06061,.01941,.12207,.02856,.18256,.02856,.25397,0,.48987-.16266,.57129-.4176,.10077-.31561-.07343-.65314-.3891-.75391Z"/></g></g></svg>