<svg xmlns="http://www.w3.org/2000/svg" xmlns:xlink="http://www.w3.org/1999/xlink" width="8.837" height="10" viewBox="0 0 8.837 10"><defs><clipPath id="a"><rect width="8.837" height="10" fill="#646464"/></clipPath></defs><g clip-path="url(#a)"><path d="M4.418,10a.318.318,0,0,1-.208-.083.406.406,0,0,1-.167-.375l.083-.833A4.4,4.4,0,0,1,0,4.585,4.2,4.2,0,0,1,1.211,1.419,4.531,4.531,0,0,1,4.252,0,4.465,4.465,0,0,1,7.418,1.169,4.3,4.3,0,0,1,8.834,4.252,4.723,4.723,0,0,1,7.792,7.459a9.963,9.963,0,0,1-3.207,2.5A.25.25,0,0,1,4.418,10m.167-2.041a.378.378,0,0,1,.292.125.276.276,0,0,1,.083.292l-.042.542A8.547,8.547,0,0,0,7.209,6.959a4.145,4.145,0,0,0,.875-2.708A3.719,3.719,0,0,0,6.918,1.711,3.543,3.543,0,0,0,4.293.753,3.719,3.719,0,0,0,1.753,1.919,3.605,3.605,0,0,0,.794,4.543,3.651,3.651,0,0,0,4.585,7.959h0" transform="translate(0 0)" fill="#646464"/><path d="M5.682,10.007a.375.375,0,1,1-.375.375.375.375,0,0,1,.375-.375" transform="translate(-3.096 -5.839)" fill="#646464"/><path d="M10.082,9.807a.375.375,0,1,1-.375.375.375.375,0,0,1,.375-.375" transform="translate(-5.664 -5.722)" fill="#646464"/><path d="M14.482,9.607a.375.375,0,1,1-.375.375.375.375,0,0,1,.375-.375" transform="translate(-8.231 -5.605)" fill="#646464"/></g></svg>