<?xml version="1.0" encoding="UTF-8"?><svg id="_イヤー_2" xmlns="http://www.w3.org/2000/svg" viewBox="0 0 49.99999 50"><defs><style>.cls-1{fill:none;}.cls-2{fill:#fff;}.cls-3{fill:#8acdca;}.cls-4{fill:#231815;}.cls-5{fill:#715955;}</style></defs><g id="_イヤー_1-2"><g><circle class="cls-2" cx="24.99999" cy="24.99999" r="24.99999"/><path class="cls-5" d="M29.78368,6.2908c-4.60126-3.39052-13.94046-1.58674-16.15453,5.70146-1.43877,4.73611,.09361,10.31374,.85146,10.31374s2.18871-4.25316,2.18871-4.95248c.96112,0,3.44713,.20559,6.42012-1.03012,3.46495-1.44019,5.25486-4.64507,5.80975-5.44889,.48769,.84221,1.51244,2.96434,2.18281,4.15352s2.28036,2.51968,2.90135,2.72843c.3487,.85274,1.49499,4.08339,1.67899,4.54955,.18559,.18559,1.16416-.01994,1.16416-.63938s.84217-5.95542,0-8.9914-2.36453-6.69687-7.04282-6.38442Z"/><g><path class="cls-4" d="M34.3322,18.28195c-.04225,0-.0857-.00664-.12794-.02022-3.58358-1.1557-4.6035-5.32589-4.83102-6.57664-.04104-.22661,.10923-.44387,.33554-.48491,.22813-.03893,.44358,.10923,.48522,.33585,.2064,1.13518,1.12432,4.91822,4.26614,5.9315,.21907,.07091,.33977,.30597,.26916,.52505-.05733,.17683-.22088,.28938-.3971,.28938Z"/><path class="cls-4" d="M14.00692,22.79221c-.17381,0-.33555-.10923-.39469-.28244-1.54134-4.51478-1.82016-11.15419,2.4653-15.00875,3.73687-3.23295,9.47073-4.02263,13.34218-1.8446,.20097,.11285,.27218,.36723,.15872,.5682-.11165,.20006-.36693,.27218-.56789,.15903-3.52142-1.98039-8.96017-1.21576-12.38141,1.7432-3.97707,3.57695-3.68618,9.83917-2.22752,14.11315,.07423,.21817-.04164,.45534-.26011,.52957-.04466,.01539-.08992,.02263-.13458,.02263Z"/><path class="cls-4" d="M36.71482,22.79221c-.02716,0-.05492-.00272-.08268-.00815-.22571-.04526-.37236-.26494-.3271-.49095,.81352-4.06759,.88654-9.9653-1.58539-13.20036-1.06095-1.38835-2.50815-2.1545-4.30115-2.27761-.22993-.01569-.40374-.21485-.38805-.44478s.21786-.40072,.44478-.38745c2.04345,.14001,3.69463,1.01599,4.90766,2.6035,2.64092,3.45655,2.58781,9.63216,1.74049,13.87024-.03983,.19825-.21424,.33555-.40857,.33555Z"/><path class="cls-4" d="M18.42092,17.87912c-.79783,0-1.65118-.08057-2.55703-.26946-.22571-.04677-.37055-.26765-.32348-.49336,.04707-.22541,.26856-.37115,.49366-.32317,4.09233,.85275,7.03259-.65751,8.42245-1.63247,1.88051-1.31925,2.87145-2.95353,3.01931-3.98793,.03259-.22873,.24744-.38654,.47194-.35425,.22812,.03259,.38624,.24412,.35365,.47194-.21123,1.47978-1.53229,3.26705-3.36572,4.55311-1.19131,.83585-3.43874,2.03561-6.51478,2.03561Z"/><path class="cls-4" d="M15.94959,20.65099c-.03199,0-.06397-.00362-.09596-.01116-.2245-.05281-.36331-.27731-.3108-.50181l.379-1.61104c.05311-.2242,.28244-.3624,.50151-.3105,.2245,.05281,.36331,.27731,.3108,.50181l-.379,1.61104c-.04526,.19191-.21666,.32167-.40555,.32167Z"/><path class="cls-4" d="M34.9007,20.65099c-.16174,0-.31563-.09475-.38322-.25287l-.5685-1.32649c-.09113-.21183,.00724-.45715,.21907-.54798,.20881-.09083,.45625,.00724,.54737,.21907l.5685,1.32649c.09113,.21183-.00724,.45715-.21907,.54798-.05311,.02293-.10923,.0338-.16415,.0338Z"/></g><path class="cls-4" d="M25.11857,37.04055c-.172,0-.34279-.00422-.51116-.01267-4.11647-.2073-7.46892-2.72028-8.34279-6.25287-.05552-.2236,.08087-.44991,.30477-.50513,.2245-.05552,.44961,.08117,.50513,.30477,.90646,3.66445,4.45745,5.46288,7.57453,5.61979,3.16536,.16355,7.13035-1.28425,8.74894-5.81653,.07785-.21666,.31865-.32981,.53289-.25256,.21726,.07755,.33011,.31623,.25287,.53319-1.68618,4.72088-5.69342,6.38201-9.06518,6.38201Z"/><path class="cls-4" d="M15.28332,29.6003c-.0519,0-.10441-.00966-.1557-.03018-1.12613-.45323-2.05009-1.13217-2.6723-1.96409-.73506-.98371-1.04043-2.17592-.83766-3.27097,.18467-1.00332,.81473-1.84611,1.64393-2.19915,.98129-.41792,2.18045-.05944,2.67713,.79753,.11527,.19946,.04768,.45474-.15208,.57001-.20036,.11617-.45444,.04677-.5697-.15178-.28666-.49608-1.03259-.70187-1.62824-.4481-.57514,.24472-1.01569,.85124-1.15027,1.58298-.15872,.85486,.09777,1.83404,.68558,2.61979,.52987,.70941,1.33072,1.2939,2.31503,1.6895,.21364,.086,.31744,.32891,.23114,.54285-.06518,.16264-.22148,.26162-.38684,.26162Z"/><path class="cls-4" d="M35.24047,29.6003c-.16536,0-.32167-.09897-.38684-.26192-.0863-.21364,.0175-.45655,.23114-.54255,.98431-.39529,1.78515-.97948,2.31623-1.6895,.5866-.78546,.84309-1.76463,.68497-2.61949-.13518-.73205-.57574-1.33887-1.15027-1.58328-.59626-.25377-1.34098-.04798-1.62824,.4481-.11527,.19855-.36995,.26856-.5697,.15178-.19976-.11527-.26735-.37055-.15208-.57001,.49547-.85697,1.69463-1.21545,2.67713-.79753,.828,.35275,1.45806,1.19553,1.64393,2.19946,.20217,1.09565-.1032,2.28757-.83766,3.27067-.62281,.83253-1.54737,1.51147-2.6729,1.96409-.0513,.02052-.1038,.03018-.1557,.03018Z"/><g><g><path class="cls-4" d="M25.24892,31.6875c-1.07121,0-2.03742-.46439-2.65118-1.27489-.13881-.18377-.1032-.44538,.08087-.58449,.18467-.13971,.44599-.1026,.58419,.08057,.62161,.82076,1.50875,.94448,1.98672,.94448h.00604c.77188-.00181,1.53108-.32348,1.88896-.80054,.1382-.18407,.39831-.22209,.58419-.08358,.18407,.1382,.22148,.39982,.08328,.58389-.52323,.69734-1.50151,1.13217-2.55401,1.13458h-.00905Z"/><path class="cls-4" d="M25.18254,28.39028c-.23054,0-.41702-.18678-.41702-.41702v-2.72722c0-.23024,.18648-.41702,.41702-.41702s.41702,.18678,.41702,.41702v2.72722c0,.23024-.18648,.41702-.41702,.41702Z"/></g><path class="cls-4" d="M21.37311,22.68823c0,.41863-.3394,.75802-.75808,.75802s-.75808-.3394-.75808-.75802c0-.41868,.3394-.75808,.75808-.75808s.75808,.3394,.75808,.75808Z"/><path class="cls-4" d="M22.61947,20.66095c-.07906,0-.15993-.02293-.23054-.07031-1.9131-1.27459-3.48702-1.02474-3.99517-.43935-.15027,.17502-.414,.19282-.58841,.04225-.17381-.15088-.19252-.4143-.04164-.58841,.82498-.95263,2.88835-1.17532,5.08751,.29149,.19191,.12764,.24381,.38684,.11587,.57845-.08027,.1204-.21243,.18588-.34762,.18588Z"/><path class="cls-4" d="M29.24771,22.68823c0,.41863,.3394,.75802,.75802,.75802,.41868,0,.75808-.3394,.75808-.75802,0-.41868-.3394-.75808-.75808-.75808-.41862,0-.75802,.3394-.75802,.75808Z"/><path class="cls-4" d="M27.68585,20.66095c-.13518,0-.26735-.06548-.34762-.18588-.12794-.19161-.07604-.45081,.11587-.57845,2.19795-1.4662,4.26192-1.24412,5.08751-.29149,.15088,.17411,.13217,.43754-.04164,.58841-.1732,.15057-.43754,.13277-.58841-.04225-.50815-.5857-2.08268-.83524-3.99517,.43935-.07061,.04737-.15148,.07031-.23054,.07031Z"/></g><circle class="cls-1" cx="24.99999" cy="24.99999" r="24.99999"/><g><path class="cls-4" d="M33.4203,42.22733l-4.22812-1.51992v-4.70609c0-.23024-.18648-.41702-.41702-.41702s-.41702,.18678-.41702,.41702v4.9994c0,.17592,.11044,.33313,.2758,.39258l4.52022,1.62462c2.70745,.85018,4.8068,1.57151,6.41045,2.29515,.26003-.18678,.51614-.37821,.7686-.57461-1.74087-.82725-4.01731-1.60192-6.91291-2.51113Z"/><path class="cls-4" d="M10.60218,45.43165c1.58415-.73944,3.71632-1.46783,6.51577-2.42249l4.19131-1.61919c.16113-.06216,.26675-.21696,.26675-.38926v-4.84279c0-.23024-.18648-.41702-.41702-.41702s-.41702,.18678-.41702,.41702v4.55673l-3.90887,1.51056c-2.95885,1.0089-5.25456,1.79798-6.97118,2.66657,.2428,.18509,.49061,.36357,.74027,.53987Z"/></g><path class="cls-3" d="M25,50c6.05345,0,11.60384-2.15208,15.92927-5.73212-2.42283-1.24593-5.73061-2.34437-9.71948-3.17924-.51984,1.45538-3.16091,3.84479-6.12187,3.93856-2.96088-.09377-5.60203-2.48318-6.12179-3.93856-4.1302,.86448-7.40849,2.01256-9.72752,3.31333,4.30103,3.49826,9.78515,5.59803,15.76139,5.59803Z"/></g></g></svg>