<svg xmlns="http://www.w3.org/2000/svg" width="9.143" height="12" viewBox="0 0 9.143 12"><path d="M12.571,15a.309.309,0,0,1-.2-.086C12.2,14.743,8,10.8,8,7.571a4.571,4.571,0,1,1,9.143,0c0,3.229-4.2,7.171-4.371,7.343A.309.309,0,0,1,12.571,15Zm0-11.429a4.012,4.012,0,0,0-4,4c0,2.6,3.171,5.914,4,6.743.829-.829,4-4.143,4-6.743A4.012,4.012,0,0,0,12.571,3.571Z" transform="translate(-8 -3)" fill="#646464"/><g transform="translate(2.857 2.857)"><path d="M19.714,16.429a1.714,1.714,0,1,1,1.714-1.714A1.719,1.719,0,0,1,19.714,16.429Zm0-2.857a1.143,1.143,0,1,0,1.143,1.143A1.146,1.146,0,0,0,19.714,13.571Z" transform="translate(-18 -13)" fill="#646464"/></g></svg>