<svg xmlns="http://www.w3.org/2000/svg" xmlns:xlink="http://www.w3.org/1999/xlink" width="16" height="16" viewBox="0 0 16 16"><defs><clipPath id="a"><rect width="16" height="16" fill="#646464"/></clipPath></defs><g clip-path="url(#a)"><path d="M15.374,1.717l-1.1-1.1a2.132,2.132,0,0,0-3.013,0L10.014,1.875s-.009,0-.012.008,0,.009-.008.012L1.006,10.883c-.008.008-.012.02-.019.028a.408.408,0,0,0-.049.074.385.385,0,0,0-.031.074c0,.012-.012.022-.015.035L.008,15.5a.416.416,0,0,0,.407.5A.458.458,0,0,0,.5,15.991L4.9,15.106a.357.357,0,0,0,.034-.015.408.408,0,0,0,.076-.032.4.4,0,0,0,.07-.047c.01-.008.022-.012.031-.021L14.1,6s.009,0,.012-.008,0-.009.008-.012L15.37,4.738l.008-.008a2.131,2.131,0,0,0,0-3.013M1.682,11.382,10.3,2.766,13.233,5.7,4.617,14.316l-3.672.737ZM14.794,4.139l-.008.007-.966.967L10.885,2.179l.967-.967a1.3,1.3,0,0,1,1.842,0L14.787,2.3a1.3,1.3,0,0,1,.007,1.834" transform="translate(0 0)" fill="#646464"/></g></svg>