<svg xmlns="http://www.w3.org/2000/svg" xmlns:xlink="http://www.w3.org/1999/xlink" width="7.571" height="10" viewBox="0 0 7.571 10"><defs><clipPath id="a"><rect width="7.571" height="10" fill="#646464"/></clipPath></defs><g clip-path="url(#a)"><path d="M13.308,3.2H11.542A1.049,1.049,0,0,1,10.494,2.15V.385a.385.385,0,0,1,.769,0V2.15a.279.279,0,0,0,.278.279h1.766a.385.385,0,1,1,0,.769" transform="translate(-6.121)" fill="#646464"/><path d="M7.186,10H.385A.384.384,0,0,1,0,9.615V.385A.384.384,0,0,1,.385,0H4.757a.385.385,0,0,1,.272.113L7.458,2.542a.384.384,0,0,1,.113.272v6.8A.384.384,0,0,1,7.186,10M.769,9.231H6.8V2.973L4.6.769H.769Z" fill="#646464"/><path d="M7.669,10.623h-3.4a.385.385,0,0,1,0-.769h3.4a.385.385,0,1,1,0,.769" transform="translate(-2.266 -5.748)" fill="#646464"/><path d="M7.669,14.357h-3.4a.385.385,0,1,1,0-.769h3.4a.385.385,0,1,1,0,.769" transform="translate(-2.266 -7.926)" fill="#646464"/><path d="M7.669,18.09h-3.4a.385.385,0,0,1,0-.769h3.4a.385.385,0,1,1,0,.769" transform="translate(-2.266 -10.104)" fill="#646464"/></g></svg>