<svg xmlns="http://www.w3.org/2000/svg" xmlns:xlink="http://www.w3.org/1999/xlink" width="24" height="24" viewBox="0 0 24 24"><defs><clipPath id="a"><rect width="24" height="24" fill="#fff"/></clipPath></defs><g clip-path="url(#a)"><path d="M23.1,24a1.08,1.08,0,0,1-.7-.3l-5.6-5.6a.919.919,0,0,1,1.3-1.3l5.6,5.6a.854.854,0,0,1,0,1.3.864.864,0,0,1-.6.3" fill="#fff"/><path d="M10.6,21.2A10.6,10.6,0,1,1,21.2,10.6,10.605,10.605,0,0,1,10.6,21.2m0-19.4a8.8,8.8,0,1,0,8.8,8.8,8.813,8.813,0,0,0-8.8-8.8" fill="#fff"/></g></svg>