<?xml version="1.0" encoding="UTF-8"?><svg id="_イヤー_2" xmlns="http://www.w3.org/2000/svg" viewBox="0 0 29.9945 29.9945"><defs><style>.cls-1{fill:#fff;}.cls-2{fill:#a255e5;}</style></defs><g id="_イヤー_1-2"><g><path class="cls-2" d="M14.99725,0c8.2772,0,14.99726,6.72007,14.99726,14.99726s-6.72006,14.99725-14.99726,14.99725S0,23.27443,0,14.99726,6.72005,0,14.99725,0h0Z"/><path class="cls-1" d="M20.99566,21.59616c-.09559,0-.19245-.02285-.28257-.07108-1.74665-.93469-3.72315-1.42874-5.71585-1.42874s-3.9691,.49405-5.71585,1.42874c-.29213,.15642-.65564,.04623-.81196-.24585-.15632-.29213-.04628-.65569,.24585-.81196,1.92035-1.0276,4.09261-1.57071,6.28196-1.57071s4.3617,.54316,6.28196,1.57071c.29213,.15632,.40217,.51983,.24585,.81196-.10809,.20201-.31527,.31693-.5294,.31693Z"/><g><path class="cls-1" d="M12.37458,11.40105H7.3755c-.30371,0-.54987,.24622-.54987,.54987,0,.30371,.24615,.54993,.54987,.54993h.73041c-.01147,.08197-.03052,.16168-.03052,.24683,0,.99323,.8064,1.79968,1.79968,1.79968,.99323,0,1.79962-.80646,1.79962-1.79968,0-.08533-.02081-.16461-.03229-.24683h.73218c.30371,0,.54993-.24622,.54993-.54993,0-.30365-.24622-.54987-.54993-.54987Z"/><path class="cls-1" d="M22.61903,11.40105h-4.99908c-.30371,0-.54993,.24622-.54993,.54987,0,.30371,.24622,.54993,.54993,.54993h.73035c-.01147,.08197-.03052,.16168-.03052,.24683,0,.99323,.80646,1.79968,1.79968,1.79968,.99329,0,1.79968-.80646,1.79968-1.79968,0-.08533-.02081-.16461-.03229-.24683h.73218c.30371,0,.54987-.24622,.54987-.54993,0-.30365-.24615-.54987-.54987-.54987Z"/></g></g></g></svg>