<?xml version="1.0" encoding="UTF-8"?><svg id="_イヤー_2" xmlns="http://www.w3.org/2000/svg" xmlns:xlink="http://www.w3.org/1999/xlink" viewBox="0 0 49.99999 49.99999"><defs><style>.cls-1{fill:none;}.cls-2{clip-path:url(#clippath);}.cls-3{fill:#fff;}.cls-4{fill:#8acdca;}.cls-5{fill:#231815;}.cls-6{fill:#715955;}</style><clipPath id="clippath"><circle class="cls-1" cx="24.99999" cy="24.99999" r="24.99999"/></clipPath></defs><g id="_イヤー_1-2"><g><circle class="cls-3" cx="24.99999" cy="24.99999" r="24.99999"/><g><path class="cls-6" d="M36.68814,26.06673c-.36161,.94619-.98338,2.05217-1.5102,2.98053s-1.16792,2.60688-.78746,3.71745c-.33848,.21189-1.58296,.6459-2.22886,.32904-.54605-.67633-.84119-1.76084-.27374-2.50635s1.60122-2.43999,1.96441-2.80319c.37956-.37956,1.95713-1.27813,2.83584-1.71748Z"/><path class="cls-6" d="M28.21537,6.22959c-.79853-.79853-2.71266-3.23413-7.42499-1.78271s-10.93216,5.79063-11.57186,12.47555,2.1806,10.67653,3.79725,12.9574,.43669,3.54151,.57626,3.68108,3.82504,.60768,4.03805,.60768,1.84241-1.02049,1.94891-1.68495c-1.0399-.23858-3.01609-2.94865-3.98891-4.06508-1.16129-1.33272-2.18351-3.4184-1.62137-5.97388s2.29614-3.8538,3.19364-4.7513c.8365,0,4.30677-.17692,6.29308-1.80223s4.28521-4.59353,4.58147-5.49974c.31369,.81908,1.53359,4.0431,2.35267,5.19329s2.29781,2.16264,2.90905,2.29251c.17556,.61783,1.1568,3.14755,1.26742,3.45985,.98197-.54163,2.63814-.21034,2.82405,2.68045,1.47121-.63974,1.50882-5.5334,1.50882-7.47629s-1.62446-6.77493-5.79779-9.3988c-3.04761-1.91611-4.39102-1.23017-4.88572-.91281Z"/></g><g class="cls-2"><g><g><g><path class="cls-5" d="M24.88302,29.82088c-1.07151,0-2.03772-.46439-2.65148-1.27489-.13911-.18377-.1029-.44538,.08057-.58449,.18377-.13941,.44508-.1032,.58449,.08057,.6213,.82077,1.50875,.94448,1.98672,.94448h.00634c.77188-.00181,1.53108-.32348,1.88896-.80054,.13881-.18467,.40072-.22118,.58389-.08358,.18437,.1382,.22179,.39982,.08358,.58389-.52293,.69734-1.50181,1.13217-2.55431,1.13458h-.00875Z"/><path class="cls-5" d="M24.81633,26.52335c-.23024,0-.41702-.18678-.41702-.41702v-1.41883c0-.23024,.18678-.41702,.41702-.41702s.41702,.18678,.41702,.41702v1.41883c0,.23024-.18678,.41702-.41702,.41702Z"/></g><path class="cls-5" d="M18.15972,19.46874c-.0347,0-.07001-.00664-.1041-.02022-.14243-.05763-.21123-.21967-.15389-.3621,.25981-.64273,.86029-1.02535,1.58268-1.00422,.70338,.01298,1.3283,.39137,1.51901,.92004,.0522,.14454-.02263,.30386-.16717,.35607-.14393,.0516-.30386-.02293-.35607-.16717-.11074-.30658-.54315-.54436-1.00634-.55281-.2239-.00422-.81201,.05039-1.05613,.65631-.04375,.10833-.14816,.17411-.258,.17411Z"/><path class="cls-5" d="M28.06165,19.46874c-.0347,0-.07001-.00664-.1041-.02022-.14243-.05763-.21123-.21967-.15389-.3621,.25981-.64243,.85486-1.02142,1.58328-1.00422,.70338,.01328,1.3277,.39167,1.51841,.92004,.0522,.14454-.02293,.30386-.16717,.35607-.14575,.0516-.30416-.02293-.35607-.16717-.11044-.30658-.54285-.54406-1.00573-.55281-.24261-.00785-.81231,.05039-1.05673,.65631-.04375,.10833-.14816,.17411-.258,.17411Z"/><g><path class="cls-5" d="M20.71637,23.07664c0,.41862-.3394,.75802-.75808,.75802s-.75802-.3394-.75802-.75802c0-.41869,.33934-.75808,.75802-.75808s.75808,.33939,.75808,.75808Z"/><path class="cls-5" d="M30.31225,23.26611c0,.41868-.3394,.75808-.75808,.75808s-.75808-.3394-.75808-.75808c0-.41862,.3394-.75802,.75808-.75802s.75808,.3394,.75808,.75802Z"/></g><path class="cls-5" d="M24.82538,34.30488c-.20278,0-.40706-.00573-.61285-.0178-3.75769-.21666-7.21183-2.37145-8.39952-5.24019-.08811-.21304,.01298-.45685,.22571-.54496,.21334-.08871,.45715,.01328,.54496,.22571,1.05311,2.54315,4.28153,4.53078,7.67682,4.72661,2.08871,.1201,5.96319-.34278,8.44146-4.79662,.11195-.20127,.36632-.27278,.56729-.16174,.20127,.11195,.27369,.36602,.16174,.56729-1.86753,3.35637-4.98008,5.2417-8.60561,5.2417Z"/></g><path class="cls-5" d="M34.30245,27.95395c-.16506,0-.32167-.09897-.38715-.26162-.0857-.21394,.0178-.45685,.23144-.54285,.92215-.37055,1.672-.91762,2.16868-1.58208,.54858-.73355,.78817-1.64786,.64092-2.44599-.12583-.68105-.535-1.24502-1.0682-1.47194-.55009-.23386-1.23718-.04526-1.50211,.41129-.11527,.20006-.37145,.26645-.57001,.15178-.19946-.11557-.26735-.37085-.15178-.57001,.47405-.81684,1.61859-1.15782,2.55069-.76071,.78757,.33524,1.38594,1.13518,1.56156,2.08811,.19191,1.03802-.09716,2.16687-.793,3.09716-.58811,.78666-1.46138,1.42879-2.52535,1.85667-.051,.02052-.1038,.03018-.1557,.03018Z"/><g><path class="cls-5" d="M33.53389,18.37701c-.04225,0-.0854-.00664-.12794-.02022-3.58328-1.156-4.6035-5.32589-4.83072-6.57664-.04134-.22661,.10923-.44387,.33585-.48491,.2242-.04194,.44357,.10893,.48491,.33585,.2064,1.13518,1.12402,4.91792,4.26584,5.9315,.21937,.07091,.33977,.30597,.26916,.52505-.05703,.17683-.22088,.28938-.3971,.28938Z"/><path class="cls-5" d="M17.62291,17.97417c-.79813,0-1.65118-.08056-2.55703-.26946-.22541-.04677-.37025-.26765-.32317-.49336,.04707-.22511,.26765-.36934,.49336-.32317,4.08962,.85184,7.03198-.65721,8.42184-1.63217,1.88081-1.31925,2.87176-2.95383,3.01991-3.98853,.03229-.22782,.2414-.38956,.47194-.35365,.22782,.03259,.38654,.24381,.35365,.47194-.21153,1.47978-1.53289,3.26705-3.36632,4.55311-1.19131,.83585-3.43844,2.0353-6.51418,2.0353Z"/><path class="cls-5" d="M34.10269,20.74605c-.16204,0-.31593-.09475-.38383-.25317l-.5685-1.3268c-.09053-.21153,.00754-.45685,.21937-.54768,.21213-.09113,.45715,.00754,.54768,.21937l.5685,1.3268c.09053,.21153-.00754,.45685-.21937,.54768-.05341,.02293-.10923,.0338-.16385,.0338Z"/></g><path class="cls-5" d="M13.53993,34.10694c-.05462,0-.11044-.01086-.16385-.0338-.21183-.09083-.3099-.33615-.21937-.54798,.72873-1.69976-.3624-3.31654-1.5172-5.02836-.46288-.68618-.94176-1.39559-1.29903-2.11648-2.95685-5.53229-2.41219-14.2073,4.43301-19.36602,3.02716-2.46349,7.2589-3.80024,10.28213-3.242,1.42004,.26222,2.47797,.93482,3.05975,1.94508,.11497,.19976,.04617,.45474-.15329,.5697-.20097,.11467-.45474,.04617-.5697-.15329-.57604-1.0003-1.67109-1.39016-2.48823-1.54104-2.75226-.50785-6.79843,.78606-9.61647,3.07815-6.48702,4.88926-7.00513,13.08932-4.20549,18.32739,.33826,.68256,.80115,1.36844,1.24894,2.03199,1.22903,1.82167,2.5003,3.70549,1.59264,5.82347-.06789,.15842-.22179,.25317-.38383,.25317Z"/><path class="cls-5" d="M15.24602,34.29583c-.12523,0-.24894-.05582-.33102-.16264-.14031-.18256-.10622-.44448,.07634-.58509,1.03349-.79481,.97797-2.05522,.97526-2.10863-.01237-.22933,.16295-.42637,.39228-.43965,.22722-.00905,.42637,.16083,.44056,.38956,.00422,.07091,.09264,1.74955-1.29934,2.82016-.07574,.05824-.16536,.0863-.25407,.0863Z"/><path class="cls-5" d="M17.61476,34.48593c-.17471,0-.33736-.11044-.39559-.28546-.07302-.21847,.04496-.45474,.26373-.52746,1.00302-.33464,1.11225-.51147,1.35124-.89922,.0685-.11074,.14363-.23235,.2414-.36934,.13428-.18709,.39469-.23084,.58208-.09686s.23084,.39439,.09686,.58177c-.0854,.11949-.15057,.22571-.21032,.32257-.32378,.52505-.56699,.84188-1.79753,1.25226-.04375,.01479-.08811,.02173-.13186,.02173Z"/><path class="cls-5" d="M38.55652,22.26204c-.03048,0-.06156-.00362-.09264-.01056-.2248-.051-.36542-.27459-.31442-.49909,.89378-3.93361,.32981-7.75105-1.54768-10.47314-1.82106-2.64092-4.9312-5.3108-7.46077-4.94086-.22812,.0338-.43995-.12372-.47345-.35214-.03349-.22782,.12402-.43965,.35214-.47345,2.8959-.42547,6.24019,2.35063,8.26886,5.2927,2.00966,2.9137,2.61979,6.97103,1.67441,11.13156-.04406,.19372-.21605,.32498-.40646,.32498Z"/><path class="cls-5" d="M34.48199,33.44822c-.16747,0-.32559-.10169-.38926-.26765-.83796-2.17894,.30839-3.79149,1.41702-5.35063l.27882-.39409c.13156-.1889,.39228-.23416,.58087-.10229s.23446,.39197,.10229,.58087l-.28214,.39891c-1.07061,1.50603-1.99547,2.80688-1.31835,4.56789,.08268,.21485-.02444,.45625-.23959,.53893-.04919,.01901-.09988,.02806-.14967,.02806Z"/><path class="cls-5" d="M32.33926,33.69505c-.09596,0-.19252-.03289-.27127-.10018-.7414-.63579-.91219-1.8271-.60622-2.54104,.09083-.21153,.33524-.3099,.54798-.21907,.21153,.09083,.3096,.33615,.21907,.54798-.17773,.4143-.04677,1.21092,.38232,1.57845,.17471,.14997,.19493,.4134,.04526,.58841-.08268,.09626-.19946,.14544-.31714,.14544Z"/><path class="cls-5" d="M14.77228,28.23186c-.14756,0-.29089-.07876-.36663-.21756-1.03017-1.88896-1.27188-4.40947-.63066-6.57785,.41762-1.41249,1.1723-2.47465,2.12462-2.99065,.20247-.10984,.45594-.0347,.56548,.16777,.10984,.20278,.0347,.45594-.16777,.56548-.75649,.40978-1.36813,1.29541-1.72239,2.49396-.57182,1.93392-.35063,4.26614,.56337,5.94176,.11014,.20217,.03561,.45564-.16657,.56608-.06337,.0344-.13186,.051-.19946,.051Z"/><g><path class="cls-5" d="M33.04266,39.88424l-5.04315-1.52927v-4.52323c0-.23024-.18678-.41702-.41702-.41702s-.41702,.18678-.41702,.41702v4.83253c0,.18377,.1201,.34581,.29602,.39922l5.35003,1.62221c3.22858,.88417,5.25449,2.74785,6.31831,4.93656,.22846-.15687,.45428-.3174,.6772-.48156-1.42679-2.69663-4.06005-4.51595-6.76437-5.25645Z"/><path class="cls-5" d="M10.52599,45.37749c1.09562-2.08125,3.09109-3.842,6.20557-4.69482l5.33947-1.61919c.17592-.05341,.29602-.21545,.29602-.39922v-4.83253c0-.23024-.18678-.41702-.41702-.41702s-.41702,.18678-.41702,.41702v4.52323l-5.03259,1.52625c-2.62753,.71949-5.18467,2.4513-6.64054,5.00894,.21873,.16675,.4418,.3277,.66611,.48733Z"/></g><path class="cls-4" d="M25,50c5.7411,0,11.02633-1.93991,15.24672-5.19357-1.24208-2.35591-3.529-4.35176-7.08554-5.29685-2.21153,4.14273-6.75577,4.43131-8.06804,4.4249h-.3641c-1.31231,.00641-5.85652-.28217-8.06804-4.4249-3.50679,.93188-5.77965,2.88518-7.03353,5.19798,4.24098,3.31284,9.57396,5.29243,15.37254,5.29243Z"/></g></g></g></g></svg>