<?xml version="1.0" encoding="UTF-8"?><svg id="_イヤー_2" xmlns="http://www.w3.org/2000/svg" viewBox="0 0 29.99999 30"><defs><style>.cls-1{fill:#ea3d98;}.cls-2{fill:#fff;}</style></defs><g id="_イヤー_1-2"><g><path class="cls-1" d="M9.87064,.90718c7.77802-2.83097,16.39121,1.18544,19.22217,8.96346,2.83096,7.778-1.18543,16.39121-8.96344,19.22217-7.77802,2.83097-16.39122-1.18544-19.22218-8.96345C-1.92378,12.35135,2.09262,3.73815,9.87064,.90718h0Z"/><path class="cls-2" d="M21.85771,11.91845c-.09565,.03481-.20143,.04578-.30887,.0268l-5.11627-.90211c-.21108-.03726-.38625-.18422-.45955-.38561s-.03358-.42657,.10417-.59079l3.33939-3.97982c.21291-.25361,.59144-.28686,.84516-.07393,.2538,.213,.28687,.59133,.07393,.84516l-2.67151,3.18386,4.09301,.72167c.32628,.05757,.54413,.36865,.48662,.69495-.03859,.21884-.1913,.38893-.38609,.45982Z"/><path class="cls-2" d="M7.7659,17.04745c-.19483,.07091-.4211,.03876-.59133-.10407-.2538-.213-.28687-.59133-.07393-.84516l2.67154-3.18376-4.09304-.72176c-.32628-.05757-.54413-.36865-.48662-.69495,.05754-.32622,.36878-.54434,.69495-.48662l5.1163,.9022c.21108,.03726,.38625,.18422,.45955,.38561s.03358,.42657-.10417,.59079l-3.33942,3.97973c-.07013,.08351-.15819,.14319-.25383,.17801Z"/><g><path class="cls-2" d="M4.9497,22.11765c-.35628,0-.71667-.09588-1.04102-.29711-.44953-.27881-.76363-.71618-.88441-1.23161-.12088-.51548-.03388-1.04693,.24497-1.49641,.58739-.94719,2.5427-1.7198,2.92866-1.86509,.17409-.06566,.36907-.04648,.52744,.05165,.15827,.09818,.26206,.26431,.28071,.44962,.0414,.41033,.21812,2.50525-.36937,3.45244-.37464,.60399-1.02364,.9365-1.687,.9365Zm.9095-3.44205c-.67478,.31908-1.3726,.73043-1.57042,1.04932-.10984,.17716-.14411,.38675-.09647,.59018,.04775,.20343,.17155,.37601,.34876,.4859,.36614,.22711,.84887,.11394,1.07607-.25225,.19772-.31884,.25611-1.12684,.24205-1.87314Zm.76129-.32528v0Z"/><path class="cls-2" d="M25.99692,14.45841c-.20465,0-.41252-.03193-.61717-.0992-1.05879-.34798-2.27-2.06637-2.50208-2.40732-.10477-.15398-.1321-.34789-.07401-.52481,.05819-.17697,.19518-.31684,.37093-.37864,.38899-.13679,2.38365-.80161,3.44234-.45377,.50254,.16516,.91077,.51631,1.14959,.98883,.23873,.47252,.27925,1.00948,.11414,1.51203-.27388,.8332-1.05098,1.36289-1.88374,1.36289Zm-1.63134-2.51746c.46876,.58046,1.03253,1.16136,1.38871,1.27843,.4092,.13459,.85199-.089,.98654-.49844,.06512-.19811,.04901-.40989-.04521-.59633-.09422-.18649-.25513-.32504-.45324-.39011-.35189-.11556-1.15838,.01948-1.87681,.20646Zm-.99201-.3266h0Z"/></g><path class="cls-2" d="M16.98344,25.39215c-1.02569,0-2.09552-.30053-3.12853-.89154-1.53839-.88016-2.93813-2.37256-3.94137-4.20236-.08416-.15349-.09715-.33602-.03544-.49981s.19176-.29248,.35628-.35233l11.27431-4.1035c.16442-.05985,.34691-.04496,.49932,.04091,.15251,.08582,.26001,.23399,.29418,.40564,.40754,2.04665,.29458,4.08963-.31811,5.75271-.64539,1.75188-1.82037,3.01498-3.30857,3.55658-.53945,.19635-1.10868,.2937-1.69207,.2937Zm-5.66176-5.06504c1.85327,2.94282,4.6926,4.46305,6.94355,3.64391,2.25066-.81914,3.44859-3.80897,2.9767-7.25453l-9.92026,3.61062Z"/></g></g></svg>