<?xml version="1.0" encoding="UTF-8"?><svg id="_イヤー_2" xmlns="http://www.w3.org/2000/svg" viewBox="0 0 29.9945 29.9945"><defs><style>.cls-1{fill:#f98935;}.cls-2{fill:#fff;}</style></defs><g id="_イヤー_1-2"><g><path class="cls-1" d="M14.99725,0c8.27719,0,14.99726,6.72007,14.99726,14.99726s-6.72007,14.99725-14.99726,14.99725S0,23.27443,0,14.99726,6.72007,0,14.99725,0h0Z"/><path class="cls-2" d="M11.99804,12.59785c-.23482,0-.45773-.1387-.55385-.36893-.28676-.68703-.95251-1.13095-1.69598-1.13095s-1.40921,.44391-1.69598,1.13095c-.12771,.30571-.47901,.45011-.78472,.3225-.30571-.12766-.45011-.47897-.3225-.78472,.47389-1.13505,1.57418-1.86851,2.8032-1.86851s2.32931,.73346,2.8032,1.86851c.12761,.30575-.01679,.65706-.3225,.78472-.07552,.03149-.15383,.04643-.23087,.04643Z"/><path class="cls-2" d="M22.49617,12.59785c-.23482,0-.45773-.1387-.5539-.36893-.28676-.68703-.95246-1.13095-1.69598-1.13095s-1.40921,.44391-1.69598,1.13095c-.12761,.30566-.47882,.45011-.78472,.3225-.30571-.12766-.45011-.47897-.3225-.78472,.47384-1.13505,1.57422-1.86851,2.8032-1.86851s2.32936,.73346,2.8032,1.86851c.12761,.30575-.01679,.65706-.3225,.78472-.07557,.03149-.15388,.04643-.23082,.04643Z"/><path class="cls-2" d="M14.99725,24.59551c-1.89233,0-3.74331-.65579-5.21204-1.84654-1.4471-1.17322-2.46708-2.81433-2.87198-4.62108-.03979-.17775,.00327-.36395,.11712-.50611,.11385-.14221,.28613-.22496,.46827-.22496h14.99726c.18219,0,.35443,.08275,.46827,.22496,.11385,.14216,.1569,.32841,.11707,.50611-.40491,1.80675-1.42484,3.44786-2.87194,4.62108-1.46868,1.19075-3.31971,1.84654-5.21204,1.84654Zm-6.70678-5.9989c.42888,1.25304,1.21072,2.37759,2.25032,3.22041,1.25573,1.01803,2.8384,1.57872,4.45646,1.57872s3.20078-.56069,4.45641-1.57872c1.03965-.84281,1.82144-1.96736,2.25037-3.22041H8.29046Z"/></g></g></svg>