<?xml version="1.0" encoding="UTF-8"?><svg id="_イヤー_2" xmlns="http://www.w3.org/2000/svg" viewBox="0 0 29.9945 29.9945"><defs><style>.cls-1,.cls-2{fill:#fff;}.cls-3{fill:#3d90f4;}.cls-2{fill-rule:evenodd;}</style></defs><g id="_イヤー_1-2"><g><path class="cls-3" d="M14.99725,0c8.2772,0,14.99726,6.72007,14.99726,14.99726s-6.72006,14.99725-14.99726,14.99725S0,23.27443,0,14.99726,6.72005,0,14.99725,0h0Z"/><g><path class="cls-2" d="M20.11946,11.24794c.55181,0,.99982,.448,.99982,.99982s-.448,.99982-.99982,.99982-.99982-.44801-.99982-.99982,.44801-.99982,.99982-.99982h0Z"/><path class="cls-2" d="M9.87504,11.24794c.55181,0,.99982,.448,.99982,.99982s-.448,.99982-.99982,.99982-.99982-.44801-.99982-.99982,.44801-.99982,.99982-.99982h0Z"/><path class="cls-1" d="M9.87505,15.39719c-1.7366,0-3.14942-1.41283-3.14942-3.14942s1.41283-3.14942,3.14942-3.14942,3.14942,1.41283,3.14942,3.14942-1.41283,3.14942-3.14942,3.14942Zm0-5.49899c-1.29556,0-2.34957,1.05401-2.34957,2.34957s1.05401,2.34957,2.34957,2.34957,2.34957-1.05401,2.34957-2.34957-1.05401-2.34957-2.34957-2.34957Z"/><path class="cls-1" d="M20.11947,15.39719c-1.7366,0-3.14942-1.41283-3.14942-3.14942s1.41283-3.14942,3.14942-3.14942,3.14942,1.41283,3.14942,3.14942-1.41283,3.14942-3.14942,3.14942Zm0-5.49899c-1.29556,0-2.34957,1.05401-2.34957,2.34957s1.05401,2.34957,2.34957,2.34957,2.34957-1.05401,2.34957-2.34957-1.05401-2.34957-2.34957-2.34957Z"/></g><path class="cls-1" d="M20.03049,17.46636c-.69177,0-1.66095,.10632-2.59814,.20917-.89587,.09827-1.8222,.19995-2.43506,.19995-.61255,0-1.52777-.10162-2.41284-.19989-.9267-.10284-1.88501-.20923-2.57709-.20923-1.53058,0-2.59955,1.06891-2.59955,2.59949v1.89185c0,1.53058,1.06897,2.59955,2.59955,2.59955,.69208,0,1.65039-.10638,2.57709-.20923,.88507-.09827,1.80029-.19989,2.41284-.19989,.61285,0,1.53918,.10162,2.43506,.19995,.93719,.10284,1.90637,.20917,2.59814,.20917,1.53058,0,2.59949-1.06897,2.59949-2.59955v-1.89185c0-1.53058-1.06891-2.59949-2.59949-2.59949Zm1.39972,2.59949v.54602h-2.2832v-1.80365c0-.03387-.01135-.06409-.01929-.09552,.33429-.02686,.64807-.04657,.90277-.04657,1.29877,0,1.39972,1.07141,1.39972,1.39972Zm-3.867-1.19769c.26392-.02893,.52814-.05731,.78882-.08423-.00055,.00848-.00488,.01569-.00488,.02429v1.80365h-2.94995v-1.54962c.63116-.02814,1.40472-.1106,2.16602-.19409Zm-2.96588,.19409v1.54962h-2.94995v-1.80365c0-.0097-.00488-.01782-.00555-.0274,.26764,.02777,.539,.05713,.81024,.08722,.75226,.0835,1.51697,.16602,2.14526,.19421Zm-4.58997-.39612c.24481,0,.5434,.01855,.86005,.04364-.00842,.03229-.0199,.06354-.0199,.09845v1.80365h-2.23987v-.54602c0-.32831,.10095-1.39972,1.39972-1.39972Zm-1.39972,3.29156v-.54596h2.23987v1.81805c0,.02991,.0108,.05621,.01703,.08423-.31549,.02496-.6131,.04346-.85718,.04346-1.29877,0-1.39972-1.07141-1.39972-1.39978Zm3.84442,1.19781c-.2702,.03003-.54059,.05927-.80725,.08698l.00256-.0127v-1.81805h2.94995v1.54962c-.6283,.0282-1.39301,.11066-2.14526,.19415Zm2.94513-.19415v-1.54962h2.94995v1.82745c-.25909-.02679-.52173-.05499-.78394-.08374-.76129-.0835-1.53485-.16595-2.16602-.19409Zm4.6333,.39612c-.25012,0-.55786-.01917-.88513-.04523l.00165-.00818v-1.89233h2.2832v.54596c0,.32837-.10095,1.39978-1.39972,1.39978Z"/></g></g></svg>