<?xml version="1.0" encoding="utf-8"?>
<!-- Generator: Adobe Illustrator 26.3.1, SVG Export Plug-In . SVG Version: 6.00 Build 0)  -->
<svg version="1.1" id="レイヤー_1" xmlns="http://www.w3.org/2000/svg" xmlns:xlink="http://www.w3.org/1999/xlink" x="0px"
	 y="0px" viewBox="0 0 176 24" style="enable-background:new 0 0 176 24;" xml:space="preserve">
<style type="text/css">
	.st0{fill:#333333;}
	.st1{fill:#D65327;}
</style>
<g id="a">
	<g>
		<g>
			<path class="st0" d="M32.5,19v3.6H30V19h-4v-2.3h4v-1.3h-3.2V7.1H30V5.9h-3.7V3.5H30V1.4h2.5v2.1h3.6v2.3h-3.6v1.2h3.3v8.2h-3.4
				v1.3h3.8V19C36.4,19,32.5,19,32.5,19z M28.9,10.4h1.4V9h-1.4V10.4z M28.9,13.5h1.4v-1.3h-1.4V13.5z M33.8,9h-1.5v1.4h1.5V9z
				 M33.8,12.1h-1.5v1.3h1.5V12.1z M45,22.6c-0.1-0.4-0.1-0.8-0.3-1.3c-3,0.3-6.1,0.6-8.4,0.8l-0.5-2.6l1.9-0.1
				c0.5-2.1,1.1-5,1.4-7.4h-2.7V9.3h10.7v2.5h-5.1c-0.5,2.5-1.1,5.2-1.7,7.3l3.6-0.2c-0.4-1.3-0.9-2.5-1.5-3.6l2.3-0.9
				c1.2,2.3,2.2,5.2,2.6,7.2C47.5,21.6,45,22.6,45,22.6z M46.4,5.5h-9.1V2.9h9.1C46.4,2.9,46.4,5.5,46.4,5.5z"/>
			<path class="st0" d="M141,1.7c2.4,3.4,6.6,6.6,10.2,8.2c-0.2,0.2-0.5,0.6-0.7,0.9c-3.6-1.8-7.7-4.9-9.9-8
				c-1.8,2.8-5.7,6.1-9.6,8.1c-0.1-0.3-0.4-0.6-0.7-0.9c3.9-1.9,7.8-5.3,9.6-8.3L141,1.7L141,1.7z M131.3,13.2h18.8v1h-11
				c-0.9,1.9-2,4.2-3,6c3.2-0.1,6.9-0.2,10.6-0.4c-1-1.2-2.3-2.5-3.5-3.5l0.9-0.5c2.1,1.8,4.4,4.3,5.5,6l-1,0.6
				c-0.3-0.5-0.7-1-1.2-1.6c-5.7,0.2-11.8,0.5-15.7,0.7l-0.2-1.1c1,0,2,0,3.3-0.1c1-1.7,2.2-4.2,3-6h-6.4L131.3,13.2L131.3,13.2z
				 M146,8.8v1h-10.9v-1H146z"/>
			<path class="st0" d="M161.7,6.4h-7.2v-1h7.2V6.4z M161.1,21h-4.7v1.1h-1v-7.6h5.7V21z M155.4,8.5h5.7v1h-5.7V8.5z M155.4,11.5
				h5.7v0.9h-5.7V11.5z M161.1,3.5h-5.5V2.6h5.5V3.5z M156.4,15.5V20h3.8v-4.5H156.4z M174,16.5c-0.6,1.1-1.4,2-2.3,2.9
				c0.6,1.4,1.3,2.1,2.1,2.1c0.4,0,0.6-0.5,0.7-2c0.2,0.2,0.6,0.4,0.8,0.4c-0.2,2-0.7,2.5-1.6,2.6c-1.1,0-2-0.8-2.8-2.4
				c-1,0.8-2,1.5-3.1,2c-0.2-0.2-0.4-0.5-0.6-0.7c1.2-0.5,2.4-1.3,3.4-2.2c-0.4-1-0.7-2.3-0.9-3.8h-3.6v1.9c0.9-0.1,1.9-0.3,2.8-0.4
				l0,0.8l-2.8,0.5v2.8c0,0.6-0.2,0.9-0.6,1.1c-0.5,0.2-1.3,0.2-2.6,0.2c0-0.2-0.2-0.6-0.4-0.9c1.1,0,1.9,0,2.2,0
				c0.3,0,0.3-0.1,0.3-0.3v-2.5c-1.2,0.2-2.3,0.4-3.3,0.5l-0.2-1c1-0.1,2.2-0.3,3.5-0.5v-2.1h-3.4v-0.9h3.4v-1.9
				c-0.9,0.2-1.8,0.3-2.7,0.4c-0.1-0.2-0.2-0.5-0.3-0.8c2-0.2,4.4-0.7,5.7-1.2l0.8,0.7c-0.7,0.3-1.6,0.5-2.5,0.7v2.1h3.5
				c-0.1-1-0.2-2.2-0.2-3.4h1c0,1.3,0.1,2.4,0.2,3.4h4.5v0.9h-4.4c0.2,1.2,0.4,2.2,0.7,3c0.7-0.7,1.3-1.5,1.7-2.4L174,16.5L174,16.5
				z M167.9,4.9h-5.3V4h3c-0.3-0.6-0.8-1.4-1.3-2l0.8-0.4c0.6,0.7,1.3,1.6,1.5,2.3L166.4,4h4.1l-0.2-0.1c0.5-0.6,1.1-1.7,1.4-2.3
				l1,0.4c-0.4,0.7-0.9,1.4-1.3,2h3.1v0.9h-5.6v1.8h5v0.9h-5v2h6.1v0.9h-13.3V9.6h6.2v-2h-4.6V6.8h4.6V4.9z M172.2,11.2
				c1,0.6,2.1,1.5,2.6,2.2l-0.7,0.7c-0.5-0.7-1.6-1.7-2.6-2.3C171.6,11.8,172.2,11.2,172.2,11.2z"/>
			<rect x="89.3" y="10.2" class="st0" width="15.9" height="3.3"/>
			<g>
				<path class="st0" d="M68.2,9.2c-1.9,2.7-4.7,5.2-7.9,7.1c-2.5,1.4-5.2,2.1-7.7,2.6l1.7,3c2-0.4,5.3-1.5,7.6-2.8
					c3.5-2,6.5-4.7,8.6-7.6C70.4,11.5,68.2,9.2,68.2,9.2z"/>
				<rect x="52" y="3.9" class="st0" width="8.2" height="2.6"/>
				<rect x="52" y="9.2" class="st0" width="8.2" height="2.6"/>
				<rect x="64.5" y="2.5" class="st0" width="2.6" height="4.6"/>
				<rect x="68.3" y="2.5" class="st0" width="2.6" height="4.6"/>
			</g>
			<polygon class="st0" points="84.2,10.1 82.8,10.1 73.6,10.1 73.6,12.7 82.8,12.7 82.8,14.6 74.4,14.6 74.4,17.2 82.8,17.2 
				82.8,19 73.6,19 73.6,21.6 82.8,21.6 82.8,22.4 85.4,22.4 85.4,10.1 			"/>
			<path class="st0" d="M126.6,5.2h-8.2c0.4-0.8,0.8-1.7,1-2.5l-2.9-0.8c-1,3.5-5.7,8.3-7.9,9.4l2.3,2.1c1.3-0.8,3.7-2.9,5.7-5.5
				h6.6c-1.6,6.3-8.3,10.9-12.6,11.8l2.7,2.4h0c5.1-1.6,12.4-7.5,13.2-15.5C126.6,5.5,126.6,5.2,126.6,5.2z"/>
		</g>
		<path class="st1" d="M0.7,12.2c0.7,1.2,2.6,2.6,4.8,3.7c2.6,1.3,5.4,2.1,7.8,2.1c0,0,0,0,0,0c0,0,0.1,0,0.1,0l0.4-0.1v0.8
			c0,0.1,0,0.1,0.1,0.2l3.6,4.2l0,0l0,0l0,0l0,0l0,0l0,0l0,0l0,0l0,0l0,0l0,0l0,0l0,0l0,0l0,0l0,0l0,0l0,0c0,0,0,0,0,0l0,0
			c0,0,0,0,0,0l0,0l4.1-1.3c0.1,0,0.2-0.2,0.2-0.3v-1.3l0,0c0,0,0,0,0,0l0,0c0,0,0,0,0,0l0,0l0,0c0,0,0,0,0,0l0,0c0,0,0,0,0,0l0,0
			l-3.5-4.2c-0.1-0.1-0.2-0.1-0.3-0.1l-0.4,0.1V15l0,0c0,0,0,0,0-0.1l0,0l0,0l0,0l0,0l0,0l0,0c-1-1.8-2.4-7.9-1.4-13.6
			c0-0.1,0-0.2-0.1-0.3S16.1,0.8,16,0.9l-3.6,1.2c0-0.2-0.1-0.3-0.1-0.3c0-0.1-0.1-0.1-0.1-0.2c-0.1,0-0.2,0-0.2,0L7.8,2.9
			C7.6,3,7.6,3.1,7.6,3.3c0,0.2,0.1,0.6,0.2,1L4.3,5.4c-0.1,0-0.1,0.1-0.2,0.2s0,0.2,0,0.2c0.2,0.4,0.5,1,0.9,1.7l-3,1
			c-0.1,0-0.2,0.1-0.2,0.2s0,0.2,0,0.3c0.3,0.5,0.7,1.2,1.4,2l-2.3,0.8c-0.1,0-0.2,0.1-0.2,0.2C0.6,12,0.7,12.1,0.7,12.2L0.7,12.2z
			 M5.3,8.1c1.5,2.8,4.2,6.9,7.5,8.9c-2.2-0.4-4.4-1.6-6.5-3.5c-1.7-1.5-3-3.3-3.8-4.4C2.5,9,5.3,8.1,5.3,8.1z M8,4.8
			C8.4,6.2,9.1,8.1,9.9,10c0.8,1.9,2.2,5.2,3.2,6.4v0.1C9,13.9,5.9,8.1,4.8,5.9C4.8,5.9,8,4.8,8,4.8z M11.9,2.2L11.9,2.2
			c-0.2,0.1-0.2,0.1-0.3,0.3c-0.2,1.1-0.3,3.8-0.1,6.5c0.1,1.5,0.3,3.2,0.7,4.8c-1.6-3.3-3.6-8.6-4-10.4L11.9,2.2L11.9,2.2L11.9,2.2
			z M17.2,14.8L13.6,16c-0.9-1.8-1.3-4.8-1.5-7.1C12,6.4,12,4,12.2,2.8l3.6-1.2c-0.4,3.1-0.2,6,0,7.9C16.1,11.7,16.6,13.7,17.2,14.8
			z M21.4,20l-3.5,1.1l-3.2-3.8l3.6-1.1C18.3,16.3,21.4,20,21.4,20z M21.6,21.3l-3.5,1.2v-0.7l3.5-1.2
			C21.6,20.6,21.6,21.3,21.6,21.3z M14.5,18.6V18l3,3.6v0.4L14.5,18.6z M13.8,17.3l-0.1,0v-0.7l3.6-1.2v0.5c0,0,0,0.1,0,0.1l-3.2,1
			l0,0c0,0,0,0,0,0l0,0c0,0,0,0,0,0l0,0l0,0l0,0l0,0c0,0,0,0,0,0l0,0c0,0,0,0,0,0l0,0c0,0,0,0,0,0l0,0c0,0,0,0,0,0l0,0
			C13.9,17.2,13.9,17.2,13.8,17.3L13.8,17.3L13.8,17.3C13.9,17.3,13.8,17.3,13.8,17.3z M1.4,12.2l2.1-0.7c1.8,2.2,4.6,4.8,8,5.8
			C7.1,16.7,2.8,13.9,1.4,12.2z"/>
	</g>
</g>
<g id="b">
</g>
</svg>
