<svg xmlns="http://www.w3.org/2000/svg" width="36" height="25.15" viewBox="0 0 36 25.15">
  <defs>
    <style>
      .cls-1 {
        fill: #fff;
        fill-rule: evenodd;
      }
    </style>
  </defs>
  <path id="icon-sns-yt" class="cls-1" d="M1753.25,8423.36a4.553,4.553,0,0,0-3.14-3.14c-2.8-.75-14.09-0.75-14.09-0.75s-11.26-.01-14.09.75a4.553,4.553,0,0,0-3.14,3.14,48.8,48.8,0,0,0,0,17.38,4.521,4.521,0,0,0,3.14,3.13c2.8,0.75,14.09.75,14.09,0.75s11.26,0,14.09-.75a4.521,4.521,0,0,0,3.14-3.13,47.629,47.629,0,0,0,.75-8.68A47.046,47.046,0,0,0,1753.25,8423.36Zm-20.83,14.09v-10.79l9.39,5.4Z" transform="translate(-1718 -8419.47)"/>
</svg>
