<svg xmlns="http://www.w3.org/2000/svg" width="36" height="29.28" viewBox="0 0 36 29.28">
  <defs>
    <style>
      .cls-1 {
        fill: #fff;
        fill-rule: evenodd;
      }
    </style>
  </defs>
  <path id="icon-sns-twitter" class="cls-1" d="M1698.94,8420.9a15.141,15.141,0,0,1-4.24,1.17,7.455,7.455,0,0,0,3.24-4.09,15.245,15.245,0,0,1-4.69,1.78,7.372,7.372,0,0,0-12.76,5.03,7.177,7.177,0,0,0,.19,1.69,20.889,20.889,0,0,1-15.21-7.69,7.224,7.224,0,0,0-1,3.71,7.383,7.383,0,0,0,3.28,6.15,7.259,7.259,0,0,1-3.34-.93v0.1a7.391,7.391,0,0,0,5.92,7.24,7.835,7.835,0,0,1-1.95.25,6.917,6.917,0,0,1-1.37-.13,7.4,7.4,0,0,0,6.9,5.13,14.785,14.785,0,0,1-9.15,3.16,17.108,17.108,0,0,1-1.75-.1,20.98,20.98,0,0,0,11.33,3.31c13.58,0,21-11.24,21-20.98,0-.31,0-0.63-0.02-0.94a14.937,14.937,0,0,0,3.69-3.83Z" transform="translate(-1663 -8417.41)"/>
</svg>
