<svg xmlns="http://www.w3.org/2000/svg" width="13.957" height="13.867" viewBox="0 0 13.957 13.867">
  <path id="Icon_material-language" data-name="Icon material-language" d="M9.972,3a6.934,6.934,0,1,0,6.986,6.933A6.953,6.953,0,0,0,9.972,3Zm4.836,4.16H12.749a10.808,10.808,0,0,0-.963-2.468A5.6,5.6,0,0,1,14.808,7.16ZM9.979,4.414A9.74,9.74,0,0,1,11.312,7.16H8.646A9.74,9.74,0,0,1,9.979,4.414Zm-5.4,6.906a5.39,5.39,0,0,1,0-2.773H6.936a11.378,11.378,0,0,0-.1,1.387,11.378,11.378,0,0,0,.1,1.387Zm.572,1.387H7.208a10.808,10.808,0,0,0,.963,2.468A5.566,5.566,0,0,1,5.149,12.707ZM7.208,7.16H5.149A5.566,5.566,0,0,1,8.171,4.692,10.808,10.808,0,0,0,7.208,7.16Zm2.771,8.292a9.74,9.74,0,0,1-1.333-2.746h2.666A9.74,9.74,0,0,1,9.979,15.452Zm1.633-4.132H8.346a10.136,10.136,0,0,1-.112-1.387,10.048,10.048,0,0,1,.112-1.387h3.266a10.048,10.048,0,0,1,.112,1.387A10.136,10.136,0,0,1,11.612,11.32Zm.174,3.855a10.808,10.808,0,0,0,.963-2.468h2.059a5.6,5.6,0,0,1-3.022,2.468Zm1.235-3.855a11.378,11.378,0,0,0,.1-1.387,11.378,11.378,0,0,0-.1-1.387H15.38a5.39,5.39,0,0,1,0,2.773Z" transform="translate(-3 -3)" fill="#c5c5c5"/>
</svg>
