<svg xmlns="http://www.w3.org/2000/svg" width="19.094" height="13.365" viewBox="0 0 19.094 13.365">
  <path id="Icon_awesome-money-bill-wave" data-name="Icon awesome-money-bill-wave" d="M18.531,2.92a8.835,8.835,0,0,0-3.473-.67c-3.675,0-7.349,1.86-11.023,1.86A9.052,9.052,0,0,1,1.271,3.7a1.02,1.02,0,0,0-.309-.048A.949.949,0,0,0,0,4.6v9.465a.949.949,0,0,0,.562.879,8.83,8.83,0,0,0,3.473.67c3.675,0,7.349-1.86,11.024-1.86a9.052,9.052,0,0,1,2.764.409,1.02,1.02,0,0,0,.309.048.949.949,0,0,0,.962-.949V3.8A.95.95,0,0,0,18.531,2.92ZM1.432,5.24A10.382,10.382,0,0,0,3.3,5.506,1.912,1.912,0,0,1,1.432,7.044Zm0,8.5V12.317a1.909,1.909,0,0,1,1.9,1.832A7.207,7.207,0,0,1,1.432,13.742ZM9.547,11.8A2.658,2.658,0,0,1,7.16,8.933,2.658,2.658,0,0,1,9.547,6.069a2.658,2.658,0,0,1,2.387,2.864A2.658,2.658,0,0,1,9.547,11.8Zm8.115.829a10.258,10.258,0,0,0-1.621-.252,1.905,1.905,0,0,1,1.621-1.47Zm0-7.044A1.905,1.905,0,0,1,16,3.745a7.171,7.171,0,0,1,1.665.378Z" transform="translate(0 -2.25)" fill="#c5c5c5"/>
</svg>
