<svg xmlns="http://www.w3.org/2000/svg" width="12.133" height="13.867" viewBox="0 0 12.133 13.867">
  <path id="Icon_awesome-building" data-name="Icon awesome-building" d="M11.808,13h-.542V.65a.65.65,0,0,0-.65-.65h-9.1a.65.65,0,0,0-.65.65V13H.325A.325.325,0,0,0,0,13.325v.542H12.133v-.542A.325.325,0,0,0,11.808,13ZM3.467,2.058a.325.325,0,0,1,.325-.325H4.875a.325.325,0,0,1,.325.325V3.142a.325.325,0,0,1-.325.325H3.792a.325.325,0,0,1-.325-.325Zm0,2.6a.325.325,0,0,1,.325-.325H4.875a.325.325,0,0,1,.325.325V5.742a.325.325,0,0,1-.325.325H3.792a.325.325,0,0,1-.325-.325ZM4.875,8.667H3.792a.325.325,0,0,1-.325-.325V7.258a.325.325,0,0,1,.325-.325H4.875a.325.325,0,0,1,.325.325V8.342A.325.325,0,0,1,4.875,8.667ZM6.933,13H5.2V10.725a.325.325,0,0,1,.325-.325H6.608a.325.325,0,0,1,.325.325ZM8.667,8.342a.325.325,0,0,1-.325.325H7.258a.325.325,0,0,1-.325-.325V7.258a.325.325,0,0,1,.325-.325H8.342a.325.325,0,0,1,.325.325Zm0-2.6a.325.325,0,0,1-.325.325H7.258a.325.325,0,0,1-.325-.325V4.658a.325.325,0,0,1,.325-.325H8.342a.325.325,0,0,1,.325.325Zm0-2.6a.325.325,0,0,1-.325.325H7.258a.325.325,0,0,1-.325-.325V2.058a.325.325,0,0,1,.325-.325H8.342a.325.325,0,0,1,.325.325Z" fill="#c5c5c5"/>
</svg>
